<svg xmlns="http://www.w3.org/2000/svg" xml:space="preserve" width="2000" height="1500" data-id="lg_X0vkEEnn9XPECPyFZL" data-version="1" viewBox="0 0 2000 1500"><path fill="#220f01" stroke="transparent" d="M0 0h2000v1500H0z"/><g data-padding="20"><g transform="translate(-992.397 -727.612)scale(1.89882)"><rect width="354.336" height="559.35" x="471.613" y="98.329" fill="none" rx="0" ry="0" transform="translate(400.5 400.17)"/><path fill="#e03e0b" d="M1208.421 746.074h-133.15v60.39h19.8v-34.16l116.82-4.45v165.82q-52.97 4.46-142.31 4.46-89.35 0-136.13-45.05-46.78-45.04-46.78-133.65 0-88.6 46.04-130.18 46.03-41.58 137.11-41.58 36.14 0 70.79 3.46 34.65 3.47 51.48 6.93l16.33 3.47Z"/></g><path fill="transparent" stroke="transparent" stroke-width="2.013" d="M643.784 187.5h712.432v1125H643.784z"/></g></svg>